<?xml version="1.0" encoding="UTF-8" standalone="no"?>
<svg width="11px" height="11px" viewBox="0 0 11 11" version="1.1" xmlns="http://www.w3.org/2000/svg" xmlns:xlink="http://www.w3.org/1999/xlink">
    <!-- Generator: Sketch 45.1 (43504) - http://www.bohemiancoding.com/sketch -->
    <title>Shape</title>
    <desc>Created with Sketch.</desc>
    <defs></defs>
    <g id="Symbols" stroke="none" stroke-width="1" fill="none" fill-rule="evenodd">
        <g id="icone-supprimer-marron" fill-rule="nonzero" fill="#AD8A7F">
            <path d="M10.6281923,2.166609 L7.29525373,5.49989491 L10.6281923,8.83302293 C11.1239504,9.32897055 11.1239504,10.1323394 10.6281923,10.628287 C10.3804869,10.8759924 10.0557288,10.9999398 9.73112865,10.9999398 C9.40599165,10.9999398 9.08120201,10.8761819 8.83368609,10.628287 L5.50002123,7.29478004 L2.166609,10.6282554 C1.91893519,10.8759608 1.59414555,10.9999082 1.26926117,10.9999082 C0.944471535,10.9999082 0.619902948,10.8761503 0.372008085,10.6282554 C-0.123750063,10.1325289 -0.123750063,9.32912845 0.372008085,8.83299135 L3.70485189,5.49986334 L0.371818611,2.166609 C-0.123939537,1.67085085 -0.123939537,0.867292548 0.371818611,0.3715344 C0.867482022,-0.1238448 1.67056664,-0.1238448 2.16641953,0.3715344 L5.49998965,3.70482031 L8.83330714,0.3715344 C9.32925476,-0.1238448 10.1324341,-0.1238448 10.6280028,0.3715344 C11.1239504,0.867292548 11.1239504,1.67085085 10.6281923,2.166609 Z" id="Shape"></path>
        </g>
    </g>
</svg>