
<svg width="28px" height="25px" viewBox="0 0 28 25" version="1.1" xmlns="http://www.w3.org/2000/svg" xmlns:xlink="http://www.w3.org/1999/xlink">
  <!-- Generator: Sketch 45.2 (43514) - http://www.bohemiancoding.com/sketch -->
  <desc>Created with Sketch.</desc>
  <defs></defs>
  <g id="Symbols" stroke="none" stroke-width="1" fill="none" fill-rule="evenodd">
    <g id="icone-panier-ajout-gris" transform="translate(0.000000, -6.000000)" fill="#969696">
      <g id="icone-panier">
        <path d="M27.1257143,17.2257143 L24.8114286,17.2257143 C24.7642857,13.2314286 21.5028571,10 17.5,10 C13.4971429,10 10.2357143,13.2314286 10.1928571,17.2257143 L7.87857143,17.2257143 C7.06,17.29 6.97428571,17.9928571 7.01714286,18.2457143 L9.05714286,30.2714286 C9.13,30.6914286 9.49428571,31 9.91857143,31 L25.0814286,31 C25.51,31 25.8742857,30.6914286 25.9428571,30.2714286 L27.9871429,18.2457143 C28.03,17.9928571 27.9271429,17.2857143 27.1257143,17.2257143 Z M17.5,11.7485714 C20.5385714,11.7485714 23.0114286,14.1957143 23.0585714,17.2214286 L11.9414286,17.2214286 C11.9885714,14.1957143 14.4614286,11.7485714 17.5,11.7485714 Z M24.3442857,29.2514286 L10.66,29.2514286 L8.91142857,18.9742857 L26.0885714,18.9742857 L24.3442857,29.2514286 Z" id="Shape" fill-rule="nonzero"></path>
        <path d="M13.8528571,22.8014286 L21.1428571,22.8014286 C21.6271429,22.8014286 22.0171429,22.4114286 22.0171429,21.9271429 C22.0171429,21.4428571 21.6271429,21.0528571 21.1428571,21.0528571 L13.8528571,21.0528571 C13.3685714,21.0528571 12.9785714,21.4428571 12.9785714,21.9271429 C12.9785714,22.4114286 13.3728571,22.8014286 13.8528571,22.8014286 Z" id="Shape" fill-rule="nonzero"></path>
        <path d="M13.8528571,27.1728571 L21.1428571,27.1728571 C21.6271429,27.1728571 22.0171429,26.7828571 22.0171429,26.2985714 C22.0171429,25.8142857 21.6271429,25.4242857 21.1428571,25.4242857 L13.8528571,25.4242857 C13.3685714,25.4242857 12.9785714,25.8142857 12.9785714,26.2985714 C12.9785714,26.7828571 13.3728571,27.1728571 13.8528571,27.1728571 Z" id="Shape" fill-rule="nonzero"></path>
        <text id="+" font-family="Helvetica-Bold, Helvetica" font-size="13" font-weight="bold">
          <tspan x="0" y="13">+</tspan>
        </text>
      </g>
    </g>
  </g>
</svg>
