<?xml version="1.0" encoding="UTF-8" standalone="no"?>
<svg width="50px" height="64px" viewBox="0 0 50 64" version="1.1" xmlns="http://www.w3.org/2000/svg" xmlns:xlink="http://www.w3.org/1999/xlink">
    <!-- Generator: Sketch 45.1 (43504) - http://www.bohemiancoding.com/sketch -->
    <title>icone-notification</title>
    <desc>Created with Sketch.</desc>
    <defs></defs>
    <g id="Symbols" stroke="none" stroke-width="1" fill="none" fill-rule="evenodd">
        <g id="icone-notification" fill-rule="nonzero" fill="#A27C70">
            <g id="Shape">
                <path d="M17.3971989,56.2802087 C17.3970588,56.2969043 17.3959384,56.3134609 17.3959384,56.3301565 C17.3959384,60.5149217 20.8109244,63.9073391 25.0235294,63.9073391 C29.2361345,63.9073391 32.6511204,60.5149217 32.6511204,56.3301565 C32.6511204,56.3134609 32.65,56.2969043 32.6498599,56.2802087 L17.3971989,56.2802087 Z"></path>
                <path d="M49.3766106,46.8087652 L42.5117647,36.7910957 L42.5117647,24.2930087 C42.5117647,15.8643478 36.4691877,8.83853913 28.4528011,7.25523478 L28.4528011,3.4066087 C28.4526611,1.52528696 26.9173669,0 25.0233894,0 C23.1294118,0 21.5941176,1.52528696 21.5941176,3.4066087 L21.5941176,7.25537391 C13.5777311,8.83881739 7.53515406,15.8646261 7.53515406,24.2931478 L7.53515406,36.7912348 L0.670308123,46.8089043 C-0.0528011204,47.8640696 -0.129271709,49.229913 0.471568627,50.3582609 C1.07240896,51.4866087 2.25196078,52.1922783 3.53697479,52.1922783 L46.5098039,52.1922783 C47.7948179,52.1922783 48.9743697,51.4864696 49.5752101,50.3582609 C50.1761905,49.2297739 50.0995798,47.8639304 49.3766106,46.8087652 Z"></path>
            </g>
        </g>
    </g>
</svg>