<?xml version="1.0" encoding="UTF-8" standalone="no"?>
<svg width="13px" height="15px" viewBox="0 0 13 15" version="1.1" xmlns="http://www.w3.org/2000/svg" xmlns:xlink="http://www.w3.org/1999/xlink">
    <!-- Generator: Sketch 45.1 (43504) - http://www.bohemiancoding.com/sketch -->
    <title>icone-poubelle</title>
    <desc>Created with Sketch.</desc>
    <defs></defs>
    <g id="Symbols" stroke="none" stroke-width="1" fill="none" fill-rule="evenodd">
        <g id="icone-poubelle" fill-rule="nonzero" fill="#B3B3B3">
            <g id="Shape">
                <path d="M12.6317545,1.41331055 L8.60263288,1.41331055 L8.60263288,0.701806641 C8.60263288,0.314824219 8.28843694,0 7.90227252,0 L5.09775676,0 C4.71156306,0 4.3973964,0.314824219 4.3973964,0.701806641 L4.3973964,1.41328125 L0.368245495,1.41328125 C0.173391892,1.41328125 0.0154594595,1.57130859 0.0154594595,1.7662793 C0.0154594595,1.96125 0.173391892,2.11927734 0.368245495,2.11927734 L1.02211036,2.11927734 L1.46797523,13.7324414 C1.49526351,14.4432129 2.0735,15 2.78443018,15 L10.2156284,15 C10.9265586,15 11.504795,14.4431836 11.5320248,13.7324121 L11.9778896,2.11924805 L12.6317545,2.11924805 C12.8265495,2.11924805 12.9845405,1.9612207 12.9845405,1.76625 C12.9845405,1.57133789 12.8266081,1.41331055 12.6317545,1.41331055 Z M5.10293919,0.705966797 L7.89706081,0.705966797 L7.89706081,1.41328125 L5.10293919,1.41328125 L5.10293919,0.705966797 L5.10293919,0.705966797 Z M10.827009,13.7053418 C10.8143311,14.035459 10.5457815,14.2940332 10.2155991,14.2940332 L2.78443018,14.2940332 C2.45427703,14.2940332 2.18572748,14.0354297 2.17302027,13.7053125 L1.72820946,2.11927734 L11.2718491,2.11927734 L10.827009,13.7053418 Z"></path>
                <path d="M4.35177928,5.31946289 C4.34806081,5.12683594 4.19091892,4.97326172 3.9991982,4.97326172 C3.99691441,4.97326172 3.99457207,4.97326172 3.99228829,4.97332031 C3.79752252,4.97707031 3.64260586,5.13814453 3.6463536,5.33302734 L3.75705856,11.0937891 C3.76074775,11.286416 3.9179482,11.4399902 4.10963964,11.4399902 C4.11192342,11.4399902 4.11426577,11.4399902 4.11654955,11.4399316 C4.31134459,11.4361816 4.46623198,11.275166 4.46248423,11.0802246 L4.35177928,5.31946289 Z"></path>
                <path d="M6.49994144,4.97323242 C6.30511712,4.97323242 6.14715541,5.13125977 6.14715541,5.32623047 L6.14715541,11.0869922 C6.14715541,11.2819336 6.30508784,11.4399902 6.49994144,11.4399902 C6.69479505,11.4399902 6.85272748,11.2819629 6.85272748,11.0869922 L6.85272748,5.32623047 C6.85272748,5.13128906 6.69479505,4.97323242 6.49994144,4.97323242 Z"></path>
                <path d="M9.00762387,4.97332031 C8.81356081,4.96901367 8.65185135,5.12455078 8.64813288,5.31946289 L8.53742793,11.0802246 C8.5336509,11.2751367 8.68856757,11.4361816 8.88336261,11.4399316 C8.8856464,11.4399609 8.88798874,11.4399902 8.89027252,11.4399902 C9.08193468,11.4399902 9.23916441,11.2863574 9.2428536,11.0937891 L9.35355856,5.33302734 C9.35730631,5.13808594 9.2024482,4.97704102 9.00762387,4.97332031 Z"></path>
            </g>
        </g>
    </g>
</svg>