<?xml version="1.0" encoding="UTF-8" standalone="no"?>
<svg width="68px" height="89px" viewBox="0 0 68 89" version="1.1" xmlns="http://www.w3.org/2000/svg" xmlns:xlink="http://www.w3.org/1999/xlink">
    <!-- Generator: Sketch 45.1 (43504) - http://www.bohemiancoding.com/sketch -->
    <title>icone-proprietaire</title>
    <desc>Created with Sketch.</desc>
    <defs></defs>
    <g id="Symbols" stroke="none" stroke-width="1" fill="none" fill-rule="evenodd">
        <g id="icone-proprietaire" fill-rule="nonzero" fill="#A37C71">
            <g id="Shape">
                <path d="M33.8736059,43.5268486 C43.7106022,43.5268486 51.6858141,33.7831286 51.6858141,21.7635514 C51.6858141,9.74372 49.0674349,0 33.8736059,0 C18.679777,0 16.0608922,9.74372 16.0608922,21.7635514 C16.0608922,33.7831286 24.0361041,43.5268486 33.8736059,43.5268486 Z"></path>
                <path d="M0.233209855,76.8802842 C0.227209855,75.9073559 0.221209855,76.6061629 0.233209855,76.8802842 L0.233209855,76.8802842 Z"></path>
                <path d="M67.5159108,77.3293029 C67.5349108,77.1286714 67.5224108,75.9373429 67.5159108,77.3293029 L67.5159108,77.3293029 Z"></path>
                <path d="M67.4779926,75.8780943 C67.1481041,54.9397 64.4296208,48.9733943 43.6269294,45.1967429 C43.6269294,45.1967429 40.698632,48.9502543 33.8733532,48.9502543 C27.0480743,48.9502543 24.1192714,45.1967429 24.1192714,45.1967429 C3.54358364,48.9322 0.659776952,54.8100143 0.280594796,75.19788 C0.249501859,76.8626886 0.235092937,76.9501629 0.229531599,76.7569057 C0.230795539,77.1190086 0.232312268,77.7887971 0.232312268,78.9567314 C0.232312268,78.9567314 5.1849368,89 33.8733532,89 C62.5612639,89 67.5143941,78.9567314 67.5143941,78.9567314 C67.5143941,78.2063343 67.5148996,77.68454 67.515658,77.3295571 C67.5100967,77.4490714 67.498974,77.2174171 67.4779926,75.8780943 Z"></path>
            </g>
        </g>
    </g>
</svg>