<?xml version="1.0" encoding="UTF-8" standalone="no"?>
<svg width="300px" height="300px" viewBox="0 0 300 300" version="1.1" xmlns="http://www.w3.org/2000/svg" xmlns:xlink="http://www.w3.org/1999/xlink">
    <!-- Generator: Sketch 45.1 (43504) - http://www.bohemiancoding.com/sketch -->
    <title>icone-liste-profil</title>
    <desc>Created with Sketch.</desc>
    <defs></defs>
    <g id="Symbols" stroke="none" stroke-width="1" fill="none" fill-rule="evenodd">
        <g id="icone-liste-profil" fill-rule="nonzero" fill="#A27C71">
            <g id="Shape">
                <path d="M80.323,203.613 L219.513,203.613 L219.513,89.834 L80.323,89.834 L80.323,203.613 Z M149.997,105.459 C162.109,105.459 171.926,115.278 171.926,127.388 C171.926,139.503 162.109,149.319 149.997,149.319 C137.885,149.319 128.066,139.502 128.066,127.388 C128.066,115.279 137.885,105.459 149.997,105.459 Z M137.47,152.396 C141.207,154.401 145.469,155.552 149.997,155.586 C154.525,155.55 158.787,154.401 162.524,152.396 C170.237,159.3 181.994,166.995 181.994,188.605 L150.204,188.605 L149.786,188.605 L117.996,188.605 C117.998,166.995 129.754,159.3 137.47,152.396 Z"></path>
                <path d="M149.995,0.001 C67.156,0.001 0,67.16 0,149.999 C0,232.838 67.156,299.996 149.995,299.996 C232.834,299.996 299.998,232.835 299.998,149.999 C299.997,67.157 232.834,0.001 149.995,0.001 Z M236.455,219.642 C236.455,223.623 233.231,226.844 229.25,226.844 L70.75,226.844 C66.769,226.844 63.545,223.623 63.545,219.642 L63.545,80.353 C63.545,76.374 66.769,73.151 70.75,73.151 L229.247,73.151 C233.228,73.151 236.452,76.375 236.452,80.353 L236.452,219.641 L236.455,219.642 L236.455,219.642 Z"></path>
            </g>
        </g>
    </g>
</svg>