<?xml version="1.0" encoding="UTF-8" standalone="no"?>
<svg width="30px" height="31px" viewBox="0 0 30 31" version="1.1" xmlns="http://www.w3.org/2000/svg" xmlns:xlink="http://www.w3.org/1999/xlink">
    <!-- Generator: Sketch 45.1 (43504) - http://www.bohemiancoding.com/sketch -->
    <title>icone-loupe</title>
    <desc>Created with Sketch.</desc>
    <defs></defs>
    <g id="Symbols" stroke="none" stroke-width="1" fill="none" fill-rule="evenodd">
        <g id="icone-loupe-noir" fill-rule="nonzero" fill="#000000">
            <path d="M29.4741074,28.2360882 L22.0960573,20.5625461 C23.9930836,18.3074465 25.0324755,15.4700699 25.0324755,12.5162378 C25.0324755,5.61489309 19.4175824,0 12.5162378,0 C5.61489309,0 0,5.61489309 0,12.5162378 C0,19.4175824 5.61489309,25.0324755 12.5162378,25.0324755 C15.107099,25.0324755 17.5760629,24.2510269 19.6869536,22.7675807 L27.1210547,30.4993505 C27.4317839,30.8220518 27.8497174,31 28.297581,31 C28.7215005,31 29.1236527,30.8383773 29.4289401,30.5445178 C30.0776077,29.9203384 30.0982867,28.8853 29.4741074,28.2360882 Z M12.5162378,3.2651055 C17.6174209,3.2651055 21.76737,7.41505459 21.76737,12.5162378 C21.76737,17.6174209 17.6174209,21.76737 12.5162378,21.76737 C7.41505459,21.76737 3.2651055,17.6174209 3.2651055,12.5162378 C3.2651055,7.41505459 7.41505459,3.2651055 12.5162378,3.2651055 Z" id="icone-loupe"></path>
        </g>
    </g>
</svg>