<?xml version="1.0" encoding="UTF-8" standalone="no"?>
<svg width="512px" height="512px" viewBox="0 0 512 512" version="1.1" xmlns="http://www.w3.org/2000/svg" xmlns:xlink="http://www.w3.org/1999/xlink">
    <!-- Generator: Sketch 45.1 (43504) - http://www.bohemiancoding.com/sketch -->
    <title>icone-ticket</title>
    <desc>Created with Sketch.</desc>
    <defs></defs>
    <g id="Symbols" stroke="none" stroke-width="1" fill="none" fill-rule="evenodd">
        <g id="icone-ticket" fill-rule="nonzero" fill="#A27C71">
            <g id="Shape">
                <path d="M348.384,138.747 C338.581,132.211 325.335,134.861 318.8,144.664 L252.68,243.844 L217.385,208.549 C209.054,200.218 195.546,200.218 187.215,208.549 C178.884,216.88 178.884,230.388 187.215,238.719 L240.911,292.415 C250.43,301.934 266.279,300.365 273.746,289.164 L354.301,168.332 C360.836,158.527 358.187,145.282 348.384,138.747 Z"></path>
                <path d="M448,0 L149.44,0 C114.021,0 85.333,28.687 85.333,64.107 L85.333,362.68 L21.338,362.666 C9.554,362.664 0,372.216 0,384 L0,450.197 C0,484.337 27.663,512 61.803,512 L362.667,512 L369.28,512 C373.241,512 376.648,511.171 379.506,509.747 C406.684,502.356 426.667,477.525 426.667,448 L426.667,170.667 L490.667,170.667 C502.449,170.667 512,161.116 512,149.334 L512,64 C512,28.645 483.355,0 448,0 Z M128,64.107 C128,52.252 137.585,42.667 149.44,42.667 L387.64,42.667 C387.439,43.236 387.257,43.814 387.072,44.39 C386.999,44.617 386.918,44.841 386.848,45.07 C386.56,46.002 386.293,46.944 386.047,47.893 C385.986,48.128 385.935,48.368 385.877,48.604 C385.699,49.324 385.529,50.047 385.376,50.777 C385.303,51.125 385.239,51.476 385.172,51.826 C385.051,52.457 384.936,53.089 384.833,53.726 C384.772,54.105 384.716,54.485 384.661,54.865 C384.571,55.493 384.492,56.124 384.421,56.758 C384.379,57.135 384.335,57.512 384.299,57.891 C384.234,58.574 384.186,59.261 384.143,59.95 C384.123,60.277 384.095,60.603 384.08,60.932 C384.03,61.949 384,62.971 384,64 L384,149.333 L384,448 C384,458.67 376.178,467.472 365.955,469.055 L364.337,469.055 C362.862,469.201 362.61,469.226 362.062,469.303 C350.554,468.981 341.333,459.587 341.333,448 L341.333,384.064 L341.333,384 C341.333,372.218 331.782,362.667 320,362.667 L128,362.667 L128,64.107 Z M61.803,469.333 C51.228,469.333 42.667,460.772 42.667,450.197 L42.667,405.338 L298.667,405.393 L298.667,448 C298.667,449.029 298.697,450.051 298.745,451.068 C298.761,451.396 298.788,451.72 298.808,452.047 C298.851,452.737 298.9,453.426 298.965,454.11 C299.001,454.488 299.044,454.864 299.086,455.24 C299.157,455.874 299.237,456.505 299.326,457.134 C299.38,457.515 299.437,457.895 299.498,458.273 C299.601,458.911 299.716,459.544 299.838,460.175 C299.905,460.524 299.969,460.874 300.041,461.221 C300.195,461.954 300.366,462.679 300.544,463.403 C300.602,463.637 300.652,463.873 300.712,464.105 C300.958,465.056 301.226,465.998 301.514,466.931 C301.584,467.157 301.663,467.378 301.736,467.603 C301.922,468.181 302.105,468.761 302.307,469.333 L61.803,469.333 Z M469.333,128 L426.666,128 L426.666,64 C426.666,52.209 436.208,42.667 447.999,42.667 C459.79,42.667 469.333,52.209 469.333,64 L469.333,128 Z"></path>
            </g>
        </g>
    </g>
</svg>